<svg xmlns="http://www.w3.org/2000/svg" xmlns:xlink="http://www.w3.org/1999/xlink" width="200" zoomAndPan="magnify" viewBox="0 0 150 149.999998" height="200" preserveAspectRatio="xMidYMid meet" version="1.0"><defs><clipPath id="4a59e1f5d4"><path d="M 33 21 L 148 21 L 148 139 L 33 139 Z M 33 21 " clip-rule="nonzero"/></clipPath><clipPath id="3b465b0ff9"><path d="M 6.457031 26.195312 L 116.734375 -21.128906 L 169.972656 102.933594 L 59.695312 150.253906 Z M 6.457031 26.195312 " clip-rule="nonzero"/></clipPath><clipPath id="f0ba1bfae9"><path d="M 6.457031 26.195312 L 116.734375 -21.128906 L 169.972656 102.933594 L 59.695312 150.253906 Z M 6.457031 26.195312 " clip-rule="nonzero"/></clipPath><clipPath id="6dfe8f12b1"><path d="M 6.457031 26.195312 L 116.734375 -21.128906 L 169.972656 102.933594 L 59.695312 150.253906 Z M 6.457031 26.195312 " clip-rule="nonzero"/></clipPath><clipPath id="b4a149632d"><path d="M 32 20 L 149 20 L 149 140 L 32 140 Z M 32 20 " clip-rule="nonzero"/></clipPath><clipPath id="3467f1a946"><path d="M 6.457031 26.195312 L 116.734375 -21.128906 L 169.972656 102.933594 L 59.695312 150.253906 Z M 6.457031 26.195312 " clip-rule="nonzero"/></clipPath><clipPath id="44d49e4cde"><path d="M 6.457031 26.195312 L 116.734375 -21.128906 L 169.972656 102.933594 L 59.695312 150.253906 Z M 6.457031 26.195312 " clip-rule="nonzero"/></clipPath><clipPath id="7d70c6bf7b"><path d="M 6.457031 26.195312 L 116.734375 -21.128906 L 169.972656 102.933594 L 59.695312 150.253906 Z M 6.457031 26.195312 " clip-rule="nonzero"/></clipPath><clipPath id="9086b2f900"><path d="M 28 11 L 144 11 L 144 129 L 28 129 Z M 28 11 " clip-rule="nonzero"/></clipPath><clipPath id="c303028869"><path d="M 6.457031 26.195312 L 116.734375 -21.128906 L 169.972656 102.933594 L 59.695312 150.253906 Z M 6.457031 26.195312 " clip-rule="nonzero"/></clipPath><clipPath id="a265942a63"><path d="M 6.457031 26.195312 L 116.734375 -21.128906 L 169.972656 102.933594 L 59.695312 150.253906 Z M 6.457031 26.195312 " clip-rule="nonzero"/></clipPath><clipPath id="5dc31314cf"><path d="M 6.457031 26.195312 L 116.734375 -21.128906 L 169.972656 102.933594 L 59.695312 150.253906 Z M 6.457031 26.195312 " clip-rule="nonzero"/></clipPath><clipPath id="6326025520"><path d="M 28 11 L 145 11 L 145 130 L 28 130 Z M 28 11 " clip-rule="nonzero"/></clipPath><clipPath id="bb48ac19f5"><path d="M 6.457031 26.195312 L 116.734375 -21.128906 L 169.972656 102.933594 L 59.695312 150.253906 Z M 6.457031 26.195312 " clip-rule="nonzero"/></clipPath><clipPath id="998816a1cc"><path d="M 6.457031 26.195312 L 116.734375 -21.128906 L 169.972656 102.933594 L 59.695312 150.253906 Z M 6.457031 26.195312 " clip-rule="nonzero"/></clipPath><clipPath id="36d0a373f7"><path d="M 6.457031 26.195312 L 116.734375 -21.128906 L 169.972656 102.933594 L 59.695312 150.253906 Z M 6.457031 26.195312 " clip-rule="nonzero"/></clipPath><clipPath id="0b82b2490e"><path d="M 25 2 L 140 2 L 140 120 L 25 120 Z M 25 2 " clip-rule="nonzero"/></clipPath><clipPath id="f69f8a0510"><path d="M 6.457031 26.195312 L 116.734375 -21.128906 L 169.972656 102.933594 L 59.695312 150.253906 Z M 6.457031 26.195312 " clip-rule="nonzero"/></clipPath><clipPath id="960f930ad7"><path d="M 6.457031 26.195312 L 116.734375 -21.128906 L 169.972656 102.933594 L 59.695312 150.253906 Z M 6.457031 26.195312 " clip-rule="nonzero"/></clipPath><clipPath id="a354287bc3"><path d="M 6.457031 26.195312 L 116.734375 -21.128906 L 169.972656 102.933594 L 59.695312 150.253906 Z M 6.457031 26.195312 " clip-rule="nonzero"/></clipPath><clipPath id="b5bf7bcb12"><path d="M 24 1 L 141 1 L 141 121 L 24 121 Z M 24 1 " clip-rule="nonzero"/></clipPath><clipPath id="3bc5cfd794"><path d="M 6.457031 26.195312 L 116.734375 -21.128906 L 169.972656 102.933594 L 59.695312 150.253906 Z M 6.457031 26.195312 " clip-rule="nonzero"/></clipPath><clipPath id="4520633ad6"><path d="M 6.457031 26.195312 L 116.734375 -21.128906 L 169.972656 102.933594 L 59.695312 150.253906 Z M 6.457031 26.195312 " clip-rule="nonzero"/></clipPath><clipPath id="7289d97264"><path d="M 6.457031 26.195312 L 116.734375 -21.128906 L 169.972656 102.933594 L 59.695312 150.253906 Z M 6.457031 26.195312 " clip-rule="nonzero"/></clipPath><clipPath id="1d878fb4ba"><path d="M 68 45 L 77 45 L 77 57 L 68 57 Z M 68 45 " clip-rule="nonzero"/></clipPath><clipPath id="2ae2a3920f"><path d="M 6.457031 26.195312 L 116.734375 -21.128906 L 169.972656 102.933594 L 59.695312 150.253906 Z M 6.457031 26.195312 " clip-rule="nonzero"/></clipPath><clipPath id="8f898f4483"><path d="M 6.457031 26.195312 L 116.734375 -21.128906 L 169.972656 102.933594 L 59.695312 150.253906 Z M 6.457031 26.195312 " clip-rule="nonzero"/></clipPath><clipPath id="78d9c8d39f"><path d="M 6.457031 26.195312 L 116.734375 -21.128906 L 169.972656 102.933594 L 59.695312 150.253906 Z M 6.457031 26.195312 " clip-rule="nonzero"/></clipPath><clipPath id="f9e6c1576a"><path d="M 85 38 L 94 38 L 94 49 L 85 49 Z M 85 38 " clip-rule="nonzero"/></clipPath><clipPath id="fb15fdb745"><path d="M 6.457031 26.195312 L 116.734375 -21.128906 L 169.972656 102.933594 L 59.695312 150.253906 Z M 6.457031 26.195312 " clip-rule="nonzero"/></clipPath><clipPath id="c67d870a1f"><path d="M 6.457031 26.195312 L 116.734375 -21.128906 L 169.972656 102.933594 L 59.695312 150.253906 Z M 6.457031 26.195312 " clip-rule="nonzero"/></clipPath><clipPath id="9cdc57a91e"><path d="M 6.457031 26.195312 L 116.734375 -21.128906 L 169.972656 102.933594 L 59.695312 150.253906 Z M 6.457031 26.195312 " clip-rule="nonzero"/></clipPath><clipPath id="14684e0912"><path d="M 73 54 L 102 54 L 102 69 L 73 69 Z M 73 54 " clip-rule="nonzero"/></clipPath><clipPath id="c006de6e15"><path d="M 6.457031 26.195312 L 116.734375 -21.128906 L 169.972656 102.933594 L 59.695312 150.253906 Z M 6.457031 26.195312 " clip-rule="nonzero"/></clipPath><clipPath id="2757782f25"><path d="M 6.457031 26.195312 L 116.734375 -21.128906 L 169.972656 102.933594 L 59.695312 150.253906 Z M 6.457031 26.195312 " clip-rule="nonzero"/></clipPath><clipPath id="89b025237f"><path d="M 6.457031 26.195312 L 116.734375 -21.128906 L 169.972656 102.933594 L 59.695312 150.253906 Z M 6.457031 26.195312 " clip-rule="nonzero"/></clipPath></defs><g clip-path="url(#4a59e1f5d4)"><g clip-path="url(#3b465b0ff9)"><g clip-path="url(#f0ba1bfae9)"><g clip-path="url(#6dfe8f12b1)"><path fill="#ff6b5c" d="M 107.832031 110.320312 L 141.570312 113.015625 C 142.109375 113.058594 142.640625 113.027344 143.171875 112.921875 C 143.699219 112.8125 144.203125 112.636719 144.683594 112.386719 C 145.164062 112.140625 145.597656 111.832031 145.992188 111.460938 C 146.382812 111.089844 146.71875 110.671875 146.996094 110.207031 C 147.269531 109.742188 147.476562 109.25 147.613281 108.726562 C 147.753906 108.203125 147.816406 107.671875 147.804688 107.132812 C 147.792969 106.589844 147.710938 106.0625 147.550781 105.542969 C 147.390625 105.027344 147.167969 104.539062 146.871094 104.085938 L 128.4375 75.625 L 141.359375 44.320312 C 141.566406 43.820312 141.699219 43.304688 141.761719 42.765625 C 141.824219 42.226562 141.808594 41.691406 141.722656 41.160156 C 141.632812 40.625 141.472656 40.113281 141.242188 39.625 C 141.011719 39.136719 140.714844 38.6875 140.359375 38.28125 C 140.003906 37.871094 139.597656 37.523438 139.144531 37.226562 C 138.691406 36.933594 138.207031 36.707031 137.6875 36.550781 C 137.171875 36.394531 136.644531 36.308594 136.105469 36.300781 C 135.5625 36.289062 135.035156 36.355469 134.511719 36.492188 L 101.828125 45.210938 L 76.078125 23.171875 C 75.667969 22.820312 75.214844 22.53125 74.726562 22.304688 C 74.234375 22.078125 73.722656 21.925781 73.1875 21.84375 C 72.652344 21.761719 72.117188 21.753906 71.582031 21.824219 C 71.046875 21.890625 70.53125 22.03125 70.035156 22.246094 C 69.539062 22.457031 69.082031 22.734375 68.664062 23.074219 C 68.246094 23.417969 67.882812 23.808594 67.574219 24.253906 C 67.265625 24.695312 67.023438 25.171875 66.847656 25.683594 C 66.671875 26.195312 66.570312 26.722656 66.542969 27.261719 L 64.777344 61.113281 L 35.941406 78.792969 C 35.480469 79.074219 35.070312 79.414062 34.703125 79.8125 C 34.339844 80.210938 34.035156 80.652344 33.792969 81.136719 C 33.550781 81.621094 33.382812 82.125 33.28125 82.65625 C 33.179688 83.191406 33.15625 83.722656 33.207031 84.261719 C 33.257812 84.800781 33.378906 85.324219 33.574219 85.828125 C 33.769531 86.332031 34.03125 86.800781 34.355469 87.234375 C 34.683594 87.664062 35.0625 88.042969 35.492188 88.371094 C 35.925781 88.695312 36.390625 88.957031 36.898438 89.148438 L 68.488281 101.351562 L 76.417969 134.320312 C 76.542969 134.847656 76.738281 135.347656 77.003906 135.816406 C 77.269531 136.289062 77.597656 136.714844 77.980469 137.09375 C 78.363281 137.476562 78.792969 137.796875 79.269531 138.054688 C 79.742188 138.316406 80.242188 138.507812 80.769531 138.628906 C 81.296875 138.746094 81.828125 138.792969 82.367188 138.761719 C 82.90625 138.734375 83.433594 138.632812 83.941406 138.453125 C 84.453125 138.277344 84.929688 138.035156 85.371094 137.726562 C 85.8125 137.414062 86.203125 137.050781 86.542969 136.628906 Z M 107.832031 110.320312 " fill-opacity="1" fill-rule="nonzero"/></g></g></g></g><g clip-path="url(#b4a149632d)"><g clip-path="url(#3467f1a946)"><g clip-path="url(#44d49e4cde)"><g clip-path="url(#7d70c6bf7b)"><path fill="#000000" d="M 144.644531 113.339844 C 143.640625 113.769531 142.59375 113.9375 141.503906 113.851562 L 108.207031 111.191406 L 87.191406 137.15625 C 86.800781 137.636719 86.355469 138.054688 85.851562 138.410156 C 85.34375 138.765625 84.800781 139.042969 84.214844 139.246094 C 83.632812 139.449219 83.03125 139.566406 82.414062 139.597656 C 81.796875 139.632812 81.1875 139.582031 80.585938 139.441406 C 79.984375 139.304688 79.410156 139.085938 78.867188 138.789062 C 78.324219 138.492188 77.835938 138.125 77.394531 137.691406 C 76.953125 137.253906 76.582031 136.765625 76.277344 136.226562 C 75.972656 135.6875 75.75 135.117188 75.605469 134.515625 L 67.78125 101.972656 L 36.597656 89.929688 C 36.019531 89.707031 35.484375 89.410156 34.992188 89.039062 C 34.496094 88.664062 34.0625 88.230469 33.691406 87.738281 C 33.316406 87.242188 33.019531 86.707031 32.796875 86.128906 C 32.570312 85.550781 32.433594 84.957031 32.375 84.339844 C 32.316406 83.722656 32.347656 83.109375 32.460938 82.5 C 32.574219 81.894531 32.769531 81.3125 33.046875 80.761719 C 33.324219 80.207031 33.671875 79.703125 34.089844 79.246094 C 34.503906 78.792969 34.976562 78.402344 35.503906 78.078125 L 63.96875 60.628906 L 65.710938 27.21875 C 65.742188 26.597656 65.859375 25.996094 66.058594 25.414062 C 66.257812 24.828125 66.535156 24.28125 66.886719 23.773438 C 67.242188 23.265625 67.65625 22.816406 68.136719 22.425781 C 68.613281 22.035156 69.136719 21.71875 69.707031 21.476562 C 70.273438 21.230469 70.863281 21.070312 71.476562 20.992188 C 72.089844 20.914062 72.699219 20.921875 73.3125 21.015625 C 73.921875 21.109375 74.507812 21.285156 75.070312 21.542969 C 75.632812 21.800781 76.148438 22.132812 76.621094 22.535156 L 102.035156 44.292969 L 134.296875 35.683594 C 134.890625 35.527344 135.5 35.453125 136.117188 35.460938 C 136.734375 35.472656 137.339844 35.570312 137.929688 35.75 C 138.523438 35.929688 139.078125 36.1875 139.597656 36.527344 C 140.117188 36.863281 140.582031 37.261719 140.988281 37.730469 C 141.394531 38.195312 141.730469 38.707031 141.996094 39.265625 C 142.261719 39.828125 142.445312 40.414062 142.542969 41.023438 C 142.644531 41.632812 142.660156 42.246094 142.589844 42.863281 C 142.519531 43.476562 142.367188 44.070312 142.132812 44.640625 L 129.375 75.539062 L 147.570312 103.632812 C 147.835938 104.039062 148.050781 104.464844 148.21875 104.917969 C 148.386719 105.371094 148.503906 105.835938 148.574219 106.316406 C 148.640625 106.792969 148.65625 107.273438 148.621094 107.753906 C 148.582031 108.234375 148.496094 108.707031 148.355469 109.167969 C 148.214844 109.632812 148.027344 110.074219 147.792969 110.496094 C 147.558594 110.914062 147.28125 111.304688 146.960938 111.664062 C 146.640625 112.027344 146.285156 112.347656 145.894531 112.628906 C 145.503906 112.910156 145.085938 113.148438 144.644531 113.339844 Z M 107.503906 109.550781 C 107.628906 109.496094 107.761719 109.476562 107.898438 109.488281 L 141.632812 112.183594 C 142.09375 112.21875 142.550781 112.191406 143.003906 112.101562 C 143.457031 112.007812 143.886719 111.855469 144.296875 111.644531 C 144.707031 111.433594 145.082031 111.167969 145.417969 110.851562 C 145.753906 110.535156 146.039062 110.175781 146.277344 109.777344 C 146.511719 109.382812 146.6875 108.957031 146.808594 108.511719 C 146.925781 108.0625 146.980469 107.609375 146.96875 107.144531 C 146.960938 106.683594 146.886719 106.230469 146.753906 105.789062 C 146.617188 105.34375 146.421875 104.929688 146.171875 104.539062 L 127.734375 76.082031 C 127.578125 75.835938 127.550781 75.574219 127.664062 75.304688 L 140.589844 44 C 140.765625 43.574219 140.878906 43.128906 140.933594 42.667969 C 140.984375 42.210938 140.972656 41.75 140.898438 41.292969 C 140.820312 40.835938 140.683594 40.398438 140.488281 39.980469 C 140.289062 39.5625 140.039062 39.179688 139.734375 38.828125 C 139.429688 38.480469 139.082031 38.179688 138.691406 37.929688 C 138.304688 37.679688 137.890625 37.484375 137.445312 37.351562 C 137.003906 37.214844 136.550781 37.144531 136.089844 37.136719 C 135.628906 37.125 135.175781 37.183594 134.726562 37.300781 L 102.042969 46.019531 C 101.761719 46.097656 101.507812 46.039062 101.285156 45.847656 L 75.535156 23.804688 C 75.183594 23.503906 74.800781 23.257812 74.378906 23.066406 C 73.957031 22.871094 73.519531 22.742188 73.0625 22.671875 C 72.605469 22.601562 72.148438 22.59375 71.691406 22.652344 C 71.230469 22.710938 70.789062 22.832031 70.367188 23.015625 C 69.941406 23.195312 69.550781 23.433594 69.191406 23.726562 C 68.832031 24.015625 68.523438 24.351562 68.257812 24.730469 C 67.996094 25.113281 67.789062 25.519531 67.636719 25.957031 C 67.488281 26.394531 67.402344 26.84375 67.378906 27.308594 L 65.613281 61.15625 C 65.597656 61.449219 65.464844 61.671875 65.214844 61.824219 L 36.378906 79.507812 C 35.984375 79.75 35.632812 80.039062 35.320312 80.378906 C 35.007812 80.722656 34.746094 81.097656 34.539062 81.511719 C 34.332031 81.925781 34.1875 82.359375 34.101562 82.8125 C 34.015625 83.269531 33.996094 83.726562 34.039062 84.1875 C 34.082031 84.648438 34.183594 85.09375 34.351562 85.527344 C 34.519531 85.960938 34.742188 86.359375 35.023438 86.730469 C 35.300781 87.097656 35.625 87.421875 35.996094 87.703125 C 36.363281 87.980469 36.765625 88.203125 37.195312 88.371094 L 68.789062 100.570312 C 69.0625 100.675781 69.234375 100.871094 69.300781 101.15625 L 77.230469 134.128906 C 77.335938 134.578125 77.503906 135.003906 77.730469 135.40625 C 77.960938 135.8125 78.238281 136.175781 78.566406 136.5 C 78.894531 136.828125 79.261719 137.101562 79.667969 137.324219 C 80.074219 137.546875 80.503906 137.707031 80.953125 137.8125 C 81.402344 137.914062 81.859375 137.953125 82.320312 137.929688 C 82.78125 137.902344 83.230469 137.816406 83.667969 137.664062 C 84.105469 137.511719 84.511719 137.304688 84.890625 137.039062 C 85.269531 136.773438 85.601562 136.460938 85.894531 136.101562 L 107.183594 109.792969 C 107.269531 109.6875 107.375 109.605469 107.503906 109.550781 Z M 107.503906 109.550781 " fill-opacity="1" fill-rule="nonzero"/></g></g></g></g><g clip-path="url(#9086b2f900)"><g clip-path="url(#c303028869)"><g clip-path="url(#a265942a63)"><g clip-path="url(#5dc31314cf)"><path fill="#5cc4ff" d="M 103.578125 100.402344 L 137.3125 103.097656 C 137.851562 103.140625 138.386719 103.109375 138.914062 103.003906 C 139.445312 102.898438 139.949219 102.71875 140.425781 102.472656 C 140.90625 102.222656 141.34375 101.914062 141.734375 101.542969 C 142.128906 101.171875 142.460938 100.753906 142.738281 100.289062 C 143.015625 99.824219 143.222656 99.332031 143.359375 98.808594 C 143.496094 98.285156 143.558594 97.753906 143.550781 97.214844 C 143.539062 96.671875 143.453125 96.144531 143.296875 95.625 C 143.136719 95.109375 142.910156 94.625 142.617188 94.167969 L 124.179688 65.707031 L 137.105469 34.402344 C 137.308594 33.902344 137.445312 33.386719 137.503906 32.847656 C 137.566406 32.3125 137.554688 31.773438 137.464844 31.242188 C 137.375 30.707031 137.21875 30.195312 136.984375 29.707031 C 136.753906 29.21875 136.460938 28.769531 136.105469 28.363281 C 135.75 27.953125 135.34375 27.605469 134.890625 27.3125 C 134.433594 27.015625 133.949219 26.789062 133.433594 26.632812 C 132.917969 26.476562 132.386719 26.390625 131.847656 26.382812 C 131.308594 26.371094 130.777344 26.4375 130.253906 26.574219 L 97.570312 35.296875 L 71.824219 13.253906 C 71.410156 12.902344 70.960938 12.613281 70.46875 12.386719 C 69.976562 12.160156 69.464844 12.007812 68.929688 11.925781 C 68.398438 11.84375 67.863281 11.839844 67.328125 11.90625 C 66.792969 11.972656 66.277344 12.113281 65.78125 12.328125 C 65.285156 12.539062 64.828125 12.816406 64.40625 13.160156 C 63.988281 13.5 63.625 13.890625 63.316406 14.335938 C 63.007812 14.777344 62.765625 15.257812 62.59375 15.769531 C 62.417969 16.277344 62.316406 16.804688 62.289062 17.34375 L 60.523438 51.195312 L 31.683594 68.875 C 31.226562 69.160156 30.8125 69.5 30.449219 69.898438 C 30.082031 70.292969 29.78125 70.734375 29.539062 71.21875 C 29.296875 71.703125 29.125 72.210938 29.027344 72.742188 C 28.925781 73.273438 28.902344 73.808594 28.949219 74.347656 C 29 74.882812 29.121094 75.40625 29.316406 75.910156 C 29.511719 76.414062 29.773438 76.882812 30.101562 77.316406 C 30.425781 77.746094 30.804688 78.125 31.238281 78.453125 C 31.667969 78.777344 32.136719 79.039062 32.640625 79.234375 L 64.234375 91.433594 L 72.160156 124.402344 C 72.289062 124.929688 72.484375 125.429688 72.75 125.898438 C 73.015625 126.371094 73.339844 126.796875 73.726562 127.179688 C 74.109375 127.558594 74.539062 127.878906 75.011719 128.140625 C 75.484375 128.398438 75.988281 128.589844 76.511719 128.710938 C 77.039062 128.828125 77.574219 128.875 78.113281 128.847656 C 78.652344 128.816406 79.175781 128.714844 79.6875 128.539062 C 80.195312 128.359375 80.671875 128.117188 81.113281 127.808594 C 81.554688 127.496094 81.945312 127.132812 82.285156 126.710938 Z M 103.578125 100.402344 " fill-opacity="1" fill-rule="nonzero"/></g></g></g></g><g clip-path="url(#6326025520)"><g clip-path="url(#bb48ac19f5)"><g clip-path="url(#998816a1cc)"><g clip-path="url(#36d0a373f7)"><path fill="#000000" d="M 140.390625 103.421875 C 139.382812 103.851562 138.335938 104.023438 137.25 103.933594 L 103.949219 101.273438 L 82.933594 127.242188 C 82.546875 127.722656 82.097656 128.136719 81.59375 128.492188 C 81.089844 128.847656 80.542969 129.125 79.960938 129.328125 C 79.375 129.53125 78.777344 129.648438 78.160156 129.679688 C 77.542969 129.714844 76.933594 129.664062 76.328125 129.527344 C 75.726562 129.386719 75.152344 129.171875 74.613281 128.871094 C 74.070312 128.574219 73.578125 128.207031 73.136719 127.773438 C 72.699219 127.335938 72.328125 126.851562 72.023438 126.308594 C 71.71875 125.769531 71.492188 125.199219 71.347656 124.597656 L 63.523438 92.054688 L 32.339844 80.011719 C 31.765625 79.789062 31.230469 79.492188 30.734375 79.121094 C 30.242188 78.746094 29.808594 78.3125 29.433594 77.820312 C 29.0625 77.324219 28.761719 76.789062 28.539062 76.210938 C 28.316406 75.636719 28.175781 75.039062 28.121094 74.421875 C 28.0625 73.804688 28.089844 73.191406 28.207031 72.585938 C 28.320312 71.976562 28.515625 71.394531 28.792969 70.84375 C 29.066406 70.289062 29.414062 69.785156 29.832031 69.332031 C 30.25 68.875 30.722656 68.484375 31.25 68.164062 L 59.710938 50.710938 L 61.453125 17.300781 C 61.484375 16.683594 61.601562 16.082031 61.800781 15.496094 C 62.003906 14.910156 62.277344 14.363281 62.632812 13.855469 C 62.984375 13.347656 63.402344 12.898438 63.878906 12.507812 C 64.359375 12.121094 64.882812 11.800781 65.449219 11.558594 C 66.015625 11.316406 66.609375 11.15625 67.21875 11.078125 C 67.832031 11 68.445312 11.007812 69.054688 11.101562 C 69.667969 11.191406 70.253906 11.367188 70.816406 11.625 C 71.378906 11.882812 71.894531 12.214844 72.363281 12.617188 L 97.78125 34.375 L 130.039062 25.769531 C 130.636719 25.609375 131.242188 25.535156 131.863281 25.546875 C 132.480469 25.558594 133.082031 25.652344 133.675781 25.832031 C 134.265625 26.015625 134.820312 26.273438 135.339844 26.609375 C 135.859375 26.945312 136.324219 27.34375 136.730469 27.8125 C 137.140625 28.277344 137.476562 28.789062 137.738281 29.351562 C 138.003906 29.910156 138.1875 30.496094 138.289062 31.105469 C 138.390625 31.71875 138.40625 32.328125 138.335938 32.945312 C 138.265625 33.558594 138.113281 34.152344 137.875 34.722656 L 125.121094 65.625 L 143.316406 93.714844 C 143.578125 94.121094 143.792969 94.550781 143.960938 95 C 144.132812 95.453125 144.25 95.917969 144.316406 96.398438 C 144.386719 96.875 144.402344 97.355469 144.363281 97.835938 C 144.328125 98.320312 144.238281 98.789062 144.101562 99.253906 C 143.960938 99.714844 143.773438 100.15625 143.539062 100.578125 C 143.300781 100.996094 143.023438 101.386719 142.703125 101.75 C 142.382812 102.109375 142.027344 102.429688 141.636719 102.710938 C 141.246094 102.992188 140.832031 103.230469 140.390625 103.421875 Z M 66.109375 13.097656 C 65.683594 13.273438 65.289062 13.507812 64.925781 13.800781 C 64.566406 14.089844 64.253906 14.425781 63.988281 14.804688 C 63.722656 15.183594 63.519531 15.59375 63.371094 16.035156 C 63.222656 16.476562 63.140625 16.925781 63.121094 17.390625 L 61.355469 51.238281 C 61.34375 51.53125 61.210938 51.753906 60.960938 51.90625 L 32.121094 69.589844 C 31.726562 69.832031 31.375 70.121094 31.0625 70.464844 C 30.75 70.804688 30.492188 71.179688 30.285156 71.59375 C 30.078125 72.007812 29.929688 72.441406 29.847656 72.898438 C 29.761719 73.351562 29.738281 73.808594 29.78125 74.269531 C 29.824219 74.730469 29.929688 75.179688 30.097656 75.609375 C 30.261719 76.042969 30.488281 76.441406 30.765625 76.8125 C 31.042969 77.179688 31.367188 77.503906 31.738281 77.785156 C 32.109375 78.0625 32.507812 78.285156 32.941406 78.453125 L 64.535156 90.652344 C 64.808594 90.757812 64.976562 90.953125 65.046875 91.238281 L 72.972656 124.210938 C 73.082031 124.660156 73.25 125.085938 73.476562 125.488281 C 73.703125 125.894531 73.980469 126.257812 74.3125 126.582031 C 74.640625 126.910156 75.007812 127.183594 75.414062 127.40625 C 75.816406 127.628906 76.246094 127.792969 76.695312 127.894531 C 77.148438 127.996094 77.605469 128.035156 78.066406 128.011719 C 78.527344 127.984375 78.976562 127.898438 79.414062 127.746094 C 79.847656 127.59375 80.257812 127.386719 80.632812 127.121094 C 81.011719 126.855469 81.347656 126.542969 81.636719 126.183594 L 102.925781 99.875 C 103.113281 99.648438 103.351562 99.546875 103.640625 99.570312 L 137.378906 102.265625 C 137.839844 102.300781 138.296875 102.273438 138.75 102.183594 C 139.199219 102.09375 139.632812 101.941406 140.042969 101.726562 C 140.453125 101.515625 140.828125 101.25 141.164062 100.933594 C 141.5 100.617188 141.785156 100.257812 142.019531 99.863281 C 142.257812 99.464844 142.433594 99.042969 142.550781 98.59375 C 142.667969 98.148438 142.722656 97.691406 142.714844 97.230469 C 142.707031 96.765625 142.632812 96.3125 142.496094 95.871094 C 142.363281 95.429688 142.167969 95.011719 141.914062 94.625 L 123.480469 66.164062 C 123.320312 65.917969 123.296875 65.660156 123.410156 65.386719 L 136.332031 34.082031 C 136.507812 33.65625 136.625 33.210938 136.675781 32.75 C 136.726562 32.292969 136.714844 31.832031 136.640625 31.375 C 136.566406 30.921875 136.429688 30.480469 136.230469 30.0625 C 136.03125 29.644531 135.78125 29.261719 135.476562 28.914062 C 135.171875 28.5625 134.824219 28.265625 134.4375 28.011719 C 134.046875 27.761719 133.632812 27.570312 133.191406 27.433594 C 132.75 27.296875 132.296875 27.226562 131.835938 27.21875 C 131.371094 27.210938 130.917969 27.265625 130.472656 27.382812 L 97.789062 36.105469 C 97.503906 36.179688 97.253906 36.121094 97.03125 35.929688 L 71.28125 13.886719 C 70.933594 13.582031 70.546875 13.332031 70.125 13.136719 C 69.707031 12.941406 69.265625 12.808594 68.808594 12.738281 C 68.351562 12.667969 67.890625 12.660156 67.433594 12.722656 C 66.972656 12.785156 66.53125 12.910156 66.109375 13.097656 Z M 66.109375 13.097656 " fill-opacity="1" fill-rule="nonzero"/></g></g></g></g><g clip-path="url(#0b82b2490e)"><g clip-path="url(#f69f8a0510)"><g clip-path="url(#960f930ad7)"><g clip-path="url(#a354287bc3)"><path fill="#ffd62e" d="M 99.703125 91.375 L 133.4375 94.070312 C 133.976562 94.113281 134.511719 94.082031 135.039062 93.972656 C 135.570312 93.867188 136.074219 93.691406 136.550781 93.441406 C 137.03125 93.195312 137.46875 92.882812 137.859375 92.515625 C 138.253906 92.144531 138.585938 91.726562 138.863281 91.261719 C 139.140625 90.796875 139.347656 90.304688 139.484375 89.78125 C 139.621094 89.257812 139.683594 88.726562 139.675781 88.183594 C 139.664062 87.644531 139.578125 87.113281 139.421875 86.597656 C 139.261719 86.078125 139.035156 85.59375 138.742188 85.140625 L 120.304688 56.679688 L 133.230469 25.375 C 133.4375 24.875 133.570312 24.355469 133.628906 23.820312 C 133.691406 23.28125 133.679688 22.746094 133.589844 22.210938 C 133.5 21.679688 133.34375 21.167969 133.109375 20.679688 C 132.878906 20.1875 132.585938 19.742188 132.230469 19.332031 C 131.875 18.925781 131.46875 18.574219 131.015625 18.28125 C 130.5625 17.988281 130.074219 17.761719 129.558594 17.605469 C 129.042969 17.445312 128.511719 17.363281 127.972656 17.351562 C 127.433594 17.34375 126.902344 17.40625 126.382812 17.546875 L 93.695312 26.265625 L 67.949219 4.222656 C 67.535156 3.871094 67.085938 3.582031 66.59375 3.359375 C 66.101562 3.132812 65.589844 2.980469 65.058594 2.898438 C 64.523438 2.816406 63.988281 2.808594 63.453125 2.878906 C 62.917969 2.945312 62.402344 3.085938 61.90625 3.296875 C 61.410156 3.511719 60.953125 3.789062 60.535156 4.128906 C 60.113281 4.472656 59.75 4.863281 59.441406 5.308594 C 59.132812 5.75 58.890625 6.226562 58.71875 6.738281 C 58.542969 7.25 58.441406 7.777344 58.414062 8.316406 L 56.648438 42.164062 L 27.8125 59.847656 C 27.351562 60.128906 26.9375 60.46875 26.574219 60.867188 C 26.207031 61.265625 25.90625 61.707031 25.664062 62.191406 C 25.421875 62.671875 25.25 63.179688 25.152344 63.710938 C 25.050781 64.242188 25.027344 64.777344 25.074219 65.316406 C 25.125 65.855469 25.246094 66.378906 25.441406 66.882812 C 25.636719 67.386719 25.898438 67.855469 26.226562 68.285156 C 26.550781 68.71875 26.929688 69.097656 27.363281 69.421875 C 27.792969 69.75 28.261719 70.007812 28.765625 70.203125 L 60.359375 82.40625 L 68.285156 115.375 C 68.414062 115.902344 68.609375 116.398438 68.875 116.871094 C 69.140625 117.34375 69.464844 117.769531 69.851562 118.148438 C 70.234375 118.53125 70.664062 118.851562 71.136719 119.109375 C 71.613281 119.371094 72.113281 119.5625 72.636719 119.679688 C 73.164062 119.800781 73.699219 119.847656 74.238281 119.816406 C 74.777344 119.789062 75.300781 119.683594 75.8125 119.507812 C 76.320312 119.332031 76.796875 119.089844 77.238281 118.777344 C 77.679688 118.46875 78.070312 118.105469 78.410156 117.683594 Z M 99.703125 91.375 " fill-opacity="1" fill-rule="nonzero"/></g></g></g></g><g clip-path="url(#b5bf7bcb12)"><g clip-path="url(#3bc5cfd794)"><g clip-path="url(#4520633ad6)"><g clip-path="url(#7289d97264)"><path fill="#000000" d="M 136.515625 94.394531 C 135.511719 94.824219 134.464844 94.992188 133.375 94.902344 L 100.074219 92.242188 L 79.0625 118.210938 C 78.671875 118.691406 78.226562 119.109375 77.71875 119.464844 C 77.214844 119.820312 76.667969 120.097656 76.085938 120.300781 C 75.5 120.5 74.902344 120.617188 74.285156 120.652344 C 73.667969 120.6875 73.058594 120.632812 72.453125 120.496094 C 71.851562 120.359375 71.28125 120.140625 70.738281 119.84375 C 70.195312 119.546875 69.703125 119.179688 69.265625 118.742188 C 68.824219 118.308594 68.453125 117.820312 68.148438 117.28125 C 67.84375 116.742188 67.617188 116.171875 67.472656 115.570312 L 59.652344 83.027344 L 28.464844 70.984375 C 27.890625 70.761719 27.355469 70.464844 26.859375 70.089844 C 26.367188 69.71875 25.933594 69.285156 25.558594 68.789062 C 25.1875 68.296875 24.886719 67.761719 24.664062 67.183594 C 24.441406 66.605469 24.300781 66.007812 24.246094 65.394531 C 24.1875 64.777344 24.214844 64.164062 24.332031 63.554688 C 24.445312 62.949219 24.640625 62.367188 24.917969 61.8125 C 25.191406 61.261719 25.539062 60.757812 25.957031 60.300781 C 26.375 59.847656 26.847656 59.457031 27.375 59.132812 L 55.835938 41.679688 L 57.578125 8.269531 C 57.609375 7.652344 57.726562 7.050781 57.925781 6.464844 C 58.128906 5.882812 58.40625 5.335938 58.757812 4.828125 C 59.109375 4.320312 59.527344 3.871094 60.003906 3.480469 C 60.484375 3.089844 61.007812 2.773438 61.574219 2.53125 C 62.144531 2.285156 62.734375 2.125 63.347656 2.046875 C 63.957031 1.96875 64.570312 1.976562 65.179688 2.070312 C 65.792969 2.164062 66.378906 2.339844 66.941406 2.597656 C 67.503906 2.855469 68.019531 3.1875 68.488281 3.589844 L 93.90625 25.34375 L 126.164062 16.738281 C 126.761719 16.578125 127.367188 16.507812 127.988281 16.515625 C 128.605469 16.527344 129.210938 16.625 129.800781 16.804688 C 130.390625 16.984375 130.945312 17.242188 131.464844 17.578125 C 131.984375 17.914062 132.449219 18.316406 132.855469 18.78125 C 133.265625 19.25 133.601562 19.761719 133.867188 20.320312 C 134.128906 20.882812 134.3125 21.464844 134.414062 22.078125 C 134.515625 22.6875 134.53125 23.300781 134.460938 23.914062 C 134.390625 24.53125 134.238281 25.125 134 25.695312 L 121.246094 56.59375 L 139.441406 84.6875 C 139.703125 85.089844 139.917969 85.519531 140.089844 85.972656 C 140.257812 86.425781 140.375 86.890625 140.441406 87.367188 C 140.511719 87.847656 140.527344 88.328125 140.488281 88.808594 C 140.453125 89.289062 140.363281 89.761719 140.226562 90.222656 C 140.085938 90.683594 139.898438 91.125 139.664062 91.546875 C 139.429688 91.96875 139.148438 92.359375 138.828125 92.71875 C 138.507812 93.078125 138.152344 93.402344 137.761719 93.683594 C 137.371094 93.964844 136.957031 94.203125 136.515625 94.394531 Z M 62.234375 4.066406 C 61.808594 4.246094 61.414062 4.480469 61.050781 4.769531 C 60.691406 5.0625 60.378906 5.394531 60.113281 5.777344 C 59.851562 6.15625 59.644531 6.566406 59.496094 7.007812 C 59.347656 7.445312 59.265625 7.898438 59.246094 8.359375 L 57.460938 42.648438 L 28.246094 60.5625 C 27.855469 60.800781 27.5 61.09375 27.1875 61.433594 C 26.875 61.773438 26.617188 62.152344 26.410156 62.566406 C 26.203125 62.980469 26.058594 63.414062 25.972656 63.867188 C 25.886719 64.324219 25.863281 64.78125 25.90625 65.242188 C 25.949219 65.703125 26.054688 66.148438 26.222656 66.582031 C 26.390625 67.011719 26.613281 67.414062 26.890625 67.78125 C 27.171875 68.152344 27.496094 68.476562 27.863281 68.753906 C 28.234375 69.035156 28.632812 69.257812 29.066406 69.421875 L 61.070312 81.78125 L 69.097656 115.179688 C 69.207031 115.632812 69.375 116.058594 69.601562 116.460938 C 69.828125 116.863281 70.105469 117.230469 70.4375 117.554688 C 70.765625 117.878906 71.132812 118.15625 71.539062 118.378906 C 71.945312 118.601562 72.371094 118.761719 72.824219 118.867188 C 73.273438 118.96875 73.730469 119.007812 74.191406 118.980469 C 74.652344 118.957031 75.101562 118.867188 75.539062 118.71875 C 75.972656 118.566406 76.382812 118.359375 76.757812 118.09375 C 77.136719 117.828125 77.472656 117.515625 77.761719 117.15625 L 99.328125 90.507812 L 133.503906 93.234375 C 133.964844 93.273438 134.421875 93.246094 134.875 93.152344 C 135.328125 93.0625 135.757812 92.910156 136.167969 92.699219 C 136.578125 92.488281 136.953125 92.222656 137.289062 91.90625 C 137.625 91.585938 137.910156 91.230469 138.144531 90.832031 C 138.382812 90.433594 138.558594 90.011719 138.675781 89.566406 C 138.792969 89.117188 138.847656 88.664062 138.839844 88.199219 C 138.832031 87.738281 138.757812 87.285156 138.621094 86.839844 C 138.488281 86.398438 138.292969 85.984375 138.042969 85.59375 L 119.367188 56.765625 L 132.457031 25.054688 C 132.632812 24.625 132.75 24.183594 132.800781 23.722656 C 132.855469 23.261719 132.84375 22.804688 132.765625 22.347656 C 132.691406 21.890625 132.554688 21.453125 132.355469 21.035156 C 132.160156 20.617188 131.90625 20.230469 131.601562 19.882812 C 131.296875 19.535156 130.949219 19.234375 130.5625 18.984375 C 130.175781 18.734375 129.757812 18.539062 129.316406 18.40625 C 128.875 18.269531 128.421875 18.199219 127.960938 18.1875 C 127.496094 18.179688 127.042969 18.238281 126.597656 18.355469 L 93.488281 27.1875 L 67.40625 4.859375 C 67.058594 4.554688 66.671875 4.304688 66.253906 4.105469 C 65.832031 3.910156 65.394531 3.777344 64.933594 3.707031 C 64.476562 3.636719 64.019531 3.632812 63.558594 3.695312 C 63.101562 3.753906 62.660156 3.878906 62.234375 4.066406 Z M 62.234375 4.066406 " fill-opacity="1" fill-rule="nonzero"/></g></g></g></g><g clip-path="url(#1d878fb4ba)"><g clip-path="url(#2ae2a3920f)"><g clip-path="url(#8f898f4483)"><g clip-path="url(#78d9c8d39f)"><path fill="#000000" d="M 69.976562 45.996094 C 70.199219 45.902344 70.433594 45.839844 70.675781 45.808594 C 70.921875 45.78125 71.171875 45.785156 71.433594 45.820312 C 71.691406 45.859375 71.949219 45.925781 72.210938 46.027344 C 72.472656 46.128906 72.734375 46.261719 72.988281 46.425781 C 73.242188 46.589844 73.492188 46.78125 73.730469 46.996094 C 73.96875 47.214844 74.195312 47.457031 74.410156 47.71875 C 74.621094 47.984375 74.820312 48.265625 75 48.566406 C 75.179688 48.867188 75.339844 49.183594 75.476562 49.507812 C 75.617188 49.832031 75.734375 50.164062 75.824219 50.5 C 75.917969 50.839844 75.988281 51.175781 76.03125 51.515625 C 76.074219 51.851562 76.09375 52.179688 76.085938 52.503906 C 76.078125 52.828125 76.042969 53.136719 75.984375 53.433594 C 75.925781 53.730469 75.84375 54.011719 75.734375 54.269531 C 75.628906 54.53125 75.5 54.765625 75.347656 54.980469 C 75.195312 55.191406 75.023438 55.375 74.832031 55.53125 C 74.640625 55.6875 74.4375 55.8125 74.214844 55.910156 C 73.992188 56.003906 73.757812 56.066406 73.511719 56.097656 C 73.269531 56.125 73.015625 56.121094 72.757812 56.085938 C 72.5 56.046875 72.238281 55.980469 71.976562 55.878906 C 71.714844 55.773438 71.457031 55.644531 71.203125 55.480469 C 70.945312 55.316406 70.699219 55.125 70.460938 54.910156 C 70.222656 54.691406 69.996094 54.449219 69.78125 54.183594 C 69.566406 53.921875 69.371094 53.636719 69.191406 53.339844 C 69.011719 53.039062 68.851562 52.722656 68.710938 52.398438 C 68.574219 52.074219 68.457031 51.742188 68.363281 51.402344 C 68.269531 51.066406 68.203125 50.730469 68.160156 50.390625 C 68.117188 50.054688 68.097656 49.726562 68.105469 49.402344 C 68.113281 49.078125 68.148438 48.769531 68.207031 48.472656 C 68.265625 48.171875 68.347656 47.894531 68.453125 47.636719 C 68.5625 47.375 68.691406 47.140625 68.84375 46.925781 C 68.996094 46.714844 69.167969 46.53125 69.355469 46.375 C 69.546875 46.21875 69.753906 46.09375 69.976562 45.996094 Z M 69.976562 45.996094 " fill-opacity="1" fill-rule="nonzero"/></g></g></g></g><g clip-path="url(#f9e6c1576a)"><g clip-path="url(#fb15fdb745)"><g clip-path="url(#c67d870a1f)"><g clip-path="url(#9cdc57a91e)"><path fill="#000000" d="M 87.316406 38.585938 C 87.539062 38.488281 87.773438 38.425781 88.019531 38.398438 C 88.261719 38.367188 88.515625 38.371094 88.773438 38.410156 C 89.03125 38.445312 89.292969 38.515625 89.554688 38.617188 C 89.816406 38.71875 90.074219 38.851562 90.328125 39.015625 C 90.585938 39.175781 90.832031 39.367188 91.070312 39.585938 C 91.308594 39.804688 91.535156 40.042969 91.75 40.308594 C 91.964844 40.574219 92.160156 40.855469 92.339844 41.15625 C 92.519531 41.457031 92.679688 41.769531 92.816406 42.09375 C 92.957031 42.421875 93.074219 42.75 93.167969 43.089844 C 93.257812 43.425781 93.328125 43.765625 93.371094 44.101562 C 93.414062 44.4375 93.433594 44.769531 93.425781 45.09375 C 93.417969 45.414062 93.382812 45.726562 93.324219 46.023438 C 93.265625 46.320312 93.183594 46.597656 93.078125 46.859375 C 92.96875 47.117188 92.839844 47.355469 92.6875 47.566406 C 92.535156 47.777344 92.363281 47.960938 92.171875 48.121094 C 91.984375 48.277344 91.777344 48.402344 91.554688 48.496094 C 91.332031 48.589844 91.097656 48.652344 90.855469 48.683594 C 90.609375 48.714844 90.355469 48.710938 90.097656 48.671875 C 89.839844 48.636719 89.582031 48.566406 89.316406 48.464844 C 89.054688 48.363281 88.796875 48.230469 88.542969 48.066406 C 88.285156 47.90625 88.039062 47.714844 87.800781 47.496094 C 87.5625 47.277344 87.335938 47.039062 87.121094 46.773438 C 86.90625 46.507812 86.710938 46.226562 86.53125 45.925781 C 86.351562 45.625 86.191406 45.3125 86.054688 44.988281 C 85.914062 44.660156 85.796875 44.328125 85.707031 43.992188 C 85.613281 43.652344 85.542969 43.316406 85.5 42.980469 C 85.457031 42.644531 85.4375 42.3125 85.445312 41.988281 C 85.453125 41.667969 85.488281 41.355469 85.546875 41.058594 C 85.605469 40.761719 85.6875 40.484375 85.796875 40.222656 C 85.902344 39.964844 86.03125 39.726562 86.183594 39.515625 C 86.335938 39.304688 86.507812 39.117188 86.699219 38.960938 C 86.886719 38.804688 87.09375 38.679688 87.316406 38.585938 Z M 87.316406 38.585938 " fill-opacity="1" fill-rule="nonzero"/></g></g></g></g><g clip-path="url(#14684e0912)"><g clip-path="url(#c006de6e15)"><g clip-path="url(#2757782f25)"><g clip-path="url(#89b025237f)"><path fill="#000000" d="M 101.402344 57.601562 C 101.285156 57.402344 101.117188 57.273438 100.890625 57.214844 C 100.667969 57.160156 100.457031 57.191406 100.257812 57.3125 C 100.054688 57.414062 99.84375 57.496094 99.621094 57.550781 C 99.398438 57.605469 99.175781 57.636719 98.945312 57.640625 C 98.71875 57.644531 98.492188 57.625 98.269531 57.578125 C 98.042969 57.53125 97.828125 57.460938 97.621094 57.367188 C 97.414062 57.269531 97.21875 57.152344 97.035156 57.011719 C 96.855469 56.875 96.691406 56.714844 96.546875 56.539062 C 96.402344 56.363281 96.277344 56.171875 96.171875 55.964844 C 96.070312 55.761719 95.992188 55.546875 95.9375 55.324219 C 95.898438 55.097656 95.785156 54.914062 95.597656 54.777344 C 95.40625 54.644531 95.199219 54.597656 94.96875 54.636719 C 94.742188 54.675781 94.5625 54.792969 94.429688 54.980469 C 94.296875 55.171875 94.25 55.382812 94.292969 55.613281 C 94.5 56.710938 95.046875 57.597656 95.933594 58.277344 C 94.960938 61.613281 92.179688 64.484375 88.570312 65.820312 C 84.964844 67.160156 80.980469 66.808594 78.066406 64.917969 C 78.292969 63.824219 78.128906 62.792969 77.566406 61.828125 C 77.445312 61.632812 77.273438 61.507812 77.054688 61.453125 C 76.832031 61.398438 76.621094 61.429688 76.425781 61.546875 C 76.230469 61.664062 76.101562 61.832031 76.046875 62.054688 C 75.988281 62.277344 76.019531 62.488281 76.132812 62.683594 C 76.238281 62.886719 76.316406 63.101562 76.375 63.324219 C 76.429688 63.546875 76.460938 63.769531 76.464844 64 C 76.46875 64.230469 76.449219 64.457031 76.402344 64.679688 C 76.359375 64.902344 76.289062 65.121094 76.191406 65.328125 C 76.097656 65.535156 75.980469 65.730469 75.839844 65.910156 C 75.703125 66.09375 75.542969 66.257812 75.367188 66.402344 C 75.191406 66.546875 75.003906 66.671875 74.796875 66.773438 C 74.59375 66.878906 74.382812 66.957031 74.160156 67.007812 C 73.929688 67.046875 73.75 67.160156 73.613281 67.351562 C 73.480469 67.539062 73.433594 67.75 73.472656 67.976562 C 73.515625 68.207031 73.628906 68.386719 73.820312 68.519531 C 74.011719 68.652344 74.21875 68.699219 74.449219 68.65625 C 74.761719 68.601562 75.0625 68.511719 75.355469 68.386719 C 76.257812 67.988281 76.957031 67.363281 77.453125 66.511719 C 80.804688 68.554688 85.117188 68.890625 89.152344 67.390625 C 89.390625 67.300781 89.625 67.207031 89.855469 67.109375 C 93.539062 65.527344 96.304688 62.601562 97.4375 59.085938 C 98.515625 59.460938 99.582031 59.429688 100.636719 58.992188 C 100.800781 58.921875 100.960938 58.839844 101.117188 58.746094 C 101.316406 58.628906 101.441406 58.457031 101.5 58.234375 C 101.554688 58.011719 101.523438 57.796875 101.402344 57.601562 Z M 101.402344 57.601562 " fill-opacity="1" fill-rule="nonzero"/></g></g></g></g></svg>